<svg xmlns="http://www.w3.org/2000/svg" width="32" height="32" viewBox="0 0 32 32" fill="none">
  <circle cx="16" cy="16" r="16" fill="#25D366"/>
  <path d="M23.472 19.615c-.355-.177-2.104-1.037-2.43-1.155-.326-.119-.563-.177-.8.177-.237.355-.914 1.155-1.12 1.392-.207.237-.414.266-.77.089-.355-.178-1.5-.553-2.86-1.763-1.057-.944-1.77-2.108-1.98-2.463-.207-.355-.022-.546.155-.723.159-.158.355-.414.533-.622.178-.207.237-.355.355-.592.119-.237.06-.444-.03-.622-.089-.178-.8-1.92-1.096-2.63-.289-.695-.583-.601-.8-.612-.207-.009-.444-.011-.681-.011-.237 0-.622.089-.948.444-.326.355-1.24 1.211-1.24 2.951 0 1.74 1.267 3.422 1.444 3.659.178.237 2.5 3.82 6.037 5.207.844.29 1.5.463 2.014.592.845.214 1.616.184 2.225.112.68-.08 2.104-.859 2.402-1.689.296-.83.296-1.541.207-1.689-.089-.148-.326-.237-.68-.414z" fill="#fff"/>
</svg>
